:SAMPLES-PER-SECOND 30
:FULLY-SPECIFIED
:DEGREES
434
root  68.0776 40.2612 -5.01695 -17.3599 -78.5536 15.0475
RightUpLeg  1.41397 -14.0758 -15.209
RightLeg  7.26139 -13.5454 3.04114
RightFoot  0.657018 -0.457169 4.39007
RightToes  -1.16417e-010 0 -3.6325e-017
Spine  10.8276 0.0343556 3.60887
Spine1  8.84994 1.13253 -2.626
HEad  -19.1187 -3.17802 -0.830924
LeftShoulder1  7.54515 -15.5194 -33.6079
LeftArm  -30.2014 -55.4957 -27.1853
LeftForeArm  54.0953 -41.2976 -6.4484
LeftHand  -0.244104 0.0205437 5.32207
RightShoulder  5.82964 12.6447 30.1253
RightArm  -16.2456 36.8738 30.9876
RightForeArm  13.9118 53.9192 14.3469
RightHand  -9.45696 20.4134 -41.0014
LeftUpLeg  -1.78843 5.22492 3.65594
LeftLeg  3.32899 10.2446 -3.45687
LeftFoot  3.15543 0.183098 -1.59042
LeftToes  -2.09216e-011 1.96776e-011 -5.83545e-012
435
root  68.0053 40.2654 -5.10378 -16.5912 -78.1881 14.216
RightUpLeg  1.73957 -14.0789 -15.1182
RightLeg  7.21173 -13.9213 3.15527
RightFoot  0.45477 -0.452017 4.40243
RightToes  -1.16417e-010 0 -3.6325e-017
Spine  10.3992 -0.0282129 3.09334
Spine1  9.10903 0.930459 -2.27723
HEad  -18.8051 -2.97874 -1.18153
LeftShoulder1  7.94521 -15.4289 -35.8739
LeftArm  -24.4331 -49.3594 -26.259
LeftForeArm  50.193 -38.3942 -5.85627
LeftHand  -0.244104 0.0205437 5.32207
RightShoulder  6.23054 12.6156 32.706
RightArm  -12.7807 28.7608 30.3723
RightForeArm  14.0057 52.5173 13.5964
RightHand  -9.02006 19.7825 -40.1582
LeftUpLeg  -1.67862 5.16088 3.79784
LeftLeg  3.2703 9.87085 -3.32775
LeftFoot  3.15572 0.212823 -1.82416
LeftToes  -2.09216e-011 1.96776e-011 -5.83545e-012
436
root  67.9327 40.2682 -5.16151 -16.3512 -77.9309 13.8647
RightUpLeg  2.06962 -14.1428 -15.1397
RightLeg  7.21232 -14.0668 3.24714
RightFoot  0.2473 -0.442104 4.37024
RightToes  -1.16417e-010 0 -3.6325e-017
Spine  10.25 0.0228818 2.76615
Spine1  9.33913 0.969548 -2.29368
HEad  -18.8167 -2.97354 -1.03895
LeftShoulder1  8.33941 -15.4442 -37.8594
LeftArm  -18.1283 -42.6885 -25.8171
LeftForeArm  46.6009 -34.4492 -5.04303
LeftHand  -0.244104 0.0205437 5.32207
RightShoulder  6.34994 12.1531 34.5947
RightArm  -8.75915 21.2458 30.6359
RightForeArm  11.5628 46.4766 11.0493
RightHand  -7.49728 17.085 -37.6202
LeftUpLeg  -1.43543 5.09124 3.86761
LeftLeg  3.14171 9.65458 -3.26014
LeftFoot  3.10269 0.242568 -2.06302
LeftToes  -2.09216e-011 1.96776e-011 -5.83545e-012
437
root  67.8655 40.2704 -5.19393 -16.0735 -77.5366 13.4652
RightUpLeg  2.50225 -14.1753 -15.2227
RightLeg  7.09719 -14.3548 3.34288
RightFoot  0.0860005 -0.435281 4.35337
RightToes  -1.16417e-010 0 -3.6325e-017
Spine  9.81291 -0.0141141 2.28195
Spine1  10.3097 0.871573 -2.14462
HEad  -19.4726 -2.94193 -0.715318
LeftShoulder1  8.65528 -15.4833 -39.3655
LeftArm  -11.248 -35.9343 -25.5007
LeftForeArm  41.1188 -28.7822 -3.92769
LeftHand  -0.244104 0.0205437 5.32207
RightShoulder  6.34449 11.7814 35.5297
RightArm  -2.71091 15.4442 31.9397
RightForeArm  5.79972 34.9277 7.39389
RightHand  -5.69567 13.7742 -33.8345
LeftUpLeg  -1.18291 4.9731 3.85622
LeftLeg  2.97459 9.37451 -3.19157
LeftFoot  3.04183 0.261992 -2.22285
LeftToes  -2.09216e-011 1.96776e-011 -5.83545e-012
438
root  67.7941 40.2748 -5.19596 -15.6509 -77.2329 12.9784
RightUpLeg  2.93269 -14.071 -15.2264
RightLeg  6.79193 -14.7202 3.40842
RightFoot  0.031725 -0.443067 4.4485
RightToes  -1.16417e-010 0 -3.6325e-017
Spine  9.14948 -0.134365 1.59728
Spine1  11.6252 0.580331 -1.67243
HEad  -20.4427 -2.7082 -0.641508
LeftShoulder1  8.92689 -15.496 -40.6897
LeftArm  -5.53712 -29.085 -25.0966
LeftForeArm  35.2199 -21.0714 -3.6467
LeftHand  -0.244104 0.0205437 5.32207
RightShoulder  6.5957 12.0912 36.2933
RightArm  2.17616 11.0069 33.0958
RightForeArm  2.30899 19.2903 5.35142
RightHand  -3.90551 10.0558 -28.9339
LeftUpLeg  -0.977148 4.89489 3.85643
LeftLeg  2.83364 9.14788 -3.12523
LeftFoot  2.92336 0.269432 -2.29407
LeftToes  -2.09216e-011 1.96776e-011 -5.83545e-012
439
root  67.7082 40.2833 -5.15347 -15.372 -77.3961 12.8669
RightUpLeg  3.04432 -13.8501 -15.0907
RightLeg  6.35555 -14.8043 3.39583
RightFoot  0.095604 -0.46526 4.64907
RightToes  -1.16417e-010 0 -3.6325e-017
Spine  8.74621 -0.0629308 1.33117
Spine1  12.3224 0.608775 -1.55918
HEad  -21.2649 -2.5495 -0.676552
LeftShoulder1  9.21724 -15.5099 -42.0875
LeftArm  -7.26641 -21.9483 -24.4939
LeftForeArm  36.3398 -11.5051 -6.28544
LeftHand  -0.244104 0.0205437 5.32207
RightShoulder  7.13485 12.8084 37.6937
RightArm  -6.14217 5.676 32.6746
RightForeArm  12.0083 4.14602 7.58319
RightHand  -2.14458 5.14733 -23.7085
LeftUpLeg  -0.900966 4.94253 3.90103
LeftLeg  2.69987 9.27193 -3.14612
LeftFoot  2.69331 0.27462 -2.35777
LeftToes  -2.09216e-011 1.96776e-011 -5.83545e-012
440
root  67.6063 40.2934 -5.05553 -15.2475 -77.8515 13.2607
RightUpLeg  2.76908 -13.6455 -14.9557
RightLeg  5.82223 -14.6278 3.36876
RightFoot  0.238463 -0.499366 4.93678
RightToes  -1.16417e-010 0 -3.6325e-017
Spine  8.59605 0.23277 1.62875
Spine1  12.4125 1.072 -2.02069
HEad  -22.1528 -2.55649 -0.594731
LeftShoulder1  9.48304 -15.4269 -43.5859
LeftArm  -8.06618 -14.0613 -24.2052
LeftForeArm  36.48 -3.2918 -7.14056
LeftHand  -0.244104 0.0205437 5.32207
RightShoulder  7.55115 13.0839 39.4128
RightArm  -9.91957 -2.43896 32.2942
RightForeArm  12.5647 -2.84531 5.44374
RightHand  -1.50843 2.52359 -22.1469
LeftUpLeg  -1.10338 5.00788 3.85776
LeftLeg  2.57481 9.70681 -3.24234
LeftFoot  2.36787 0.279457 -2.44464
LeftToes  -2.09216e-011 1.96776e-011 -5.83545e-012
